<svg height="496pt" viewBox="-56 0 496 496" width="496pt" xmlns="http://www.w3.org/2000/svg"><path d="m360 0h-336c-13.230469 0-24 10.769531-24 24v448c0 13.230469 10.769531 24 24 24h336c13.230469 0 24-10.769531 24-24v-448c0-13.230469-10.769531-24-24-24zm-336 16h336c4.40625 0 8 3.59375 8 8v40h-352v-40c0-4.40625 3.59375-8 8-8zm336 464h-336c-4.40625 0-8-3.59375-8-8v-392h352v392c0 4.40625-3.59375 8-8 8zm0 0"/><path d="m32 32h16v16h-16zm0 0"/><path d="m64 32h16v16h-16zm0 0"/><path d="m96 32h16v16h-16zm0 0"/><path d="m272 32h16v16h-16zm0 0"/><path d="m304 32h16v16h-16zm0 0"/><path d="m336 32h16v16h-16zm0 0"/><path d="m344 96h-304c-4.414062 0-8 3.585938-8 8v128c0 4.414062 3.585938 8 8 8h208v56c0 3.449219 2.199219 6.496094 5.472656 7.59375.832032.269531 1.6875.40625 2.527344.40625 2.472656 0 4.855469-1.152344 6.398438-3.199219l21.601562-28.800781h36c3.230469 0 6.152344-1.953125 7.390625-4.9375 1.242187-2.992188.554687-6.429688-1.734375-8.71875l-18.34375-18.34375h36.6875c4.414062 0 8-3.585938 8-8v-128c0-4.414062-3.585938-8-8-8zm-64 160c-2.519531 0-4.886719 1.183594-6.398438 3.199219l-9.601562 12.800781v-52.6875l36.6875 36.6875zm56-32h-44.6875l-29.65625-29.65625c-2.296875-2.289062-5.726562-2.976562-8.71875-1.734375-2.984375 1.238281-4.9375 4.160156-4.9375 7.390625v24h-200v-112h288zm0 0"/><path d="m32 256h144v16h-144zm0 0"/><path d="m32 288h144v16h-144zm0 0"/><path d="m32 320h144v16h-144zm0 0"/><path d="m32 352h144v16h-144zm0 0"/><path d="m208 352h144v16h-144zm0 0"/><path d="m208 384h144v16h-144zm0 0"/><path d="m208 416h144v16h-144zm0 0"/><path d="m208 448h144v16h-144zm0 0"/><path d="m168 384h-128c-4.414062 0-8 3.585938-8 8v64c0 4.414062 3.585938 8 8 8h128c4.414062 0 8-3.585938 8-8v-64c0-4.414062-3.585938-8-8-8zm-8 64h-112v-48h112zm0 0"/><path d="m232 216v-16c-13.230469 0-24-10.769531-24-24s10.769531-24 24-24 24 10.769531 24 24h16c0-22.054688-17.945312-40-40-40s-40 17.945312-40 40 17.945312 40 40 40zm0 0"/></svg>